<?xml version="1.0" encoding="utf-8"?>
<!-- Generator: Adobe Illustrator 16.0.3, SVG Export Plug-In . SVG Version: 6.00 Build 0)  -->
<!DOCTYPE svg PUBLIC "-//W3C//DTD SVG 1.1//EN" "http://www.w3.org/Graphics/SVG/1.1/DTD/svg11.dtd">
<svg version="1.1" id="圖層_1" xmlns="http://www.w3.org/2000/svg" xmlns:xlink="http://www.w3.org/1999/xlink" x="0px" y="0px"
	 width="141.732px" height="141.732px" viewBox="0 0 141.732 141.732" enable-background="new 0 0 141.732 141.732"
	 xml:space="preserve">
<g>
	<radialGradient id="SVGID_1_" cx="4.8667" cy="142.1992" r="223.5742" gradientUnits="userSpaceOnUse">
		<stop  offset="0" style="stop-color:#FFF352"/>
		<stop  offset="0.164" style="stop-color:#F8B500"/>
		<stop  offset="0.3439" style="stop-color:#E9473C"/>
		<stop  offset="0.5556" style="stop-color:#E60040"/>
		<stop  offset="0.6991" style="stop-color:#950864"/>
		<stop  offset="0.8495" style="stop-color:#5F0671"/>
		<stop  offset="1" style="stop-color:#36257A"/>
	</radialGradient>
	<rect y="-0.001" fill="url(#SVGID_1_)" width="141.733" height="141.734"/>
	<g>
		<path fill="#FFFFFF" d="M101.225,111.138H40.5c-6.701,0-12.153-5.453-12.153-12.158V42.748c0-6.702,5.452-12.154,12.153-12.154
			h60.725c6.706,0,12.161,5.452,12.161,12.154v56.231C113.386,105.685,107.931,111.138,101.225,111.138z M40.5,36.345
			c-3.526,0-6.402,2.872-6.402,6.403v56.231c0,3.533,2.876,6.406,6.402,6.406h60.725c3.534,0,6.41-2.873,6.41-6.406V42.748
			c0-3.531-2.876-6.403-6.41-6.403H40.5z"/>
		<path fill="#FFFFFF" d="M70.867,91.954c-11.622,0-21.088-9.461-21.088-21.088c0-11.628,9.466-21.088,21.088-21.088
			c11.626,0,21.088,9.46,21.088,21.088C91.955,82.493,82.493,91.954,70.867,91.954z M70.867,55.529
			c-8.454,0-15.336,6.88-15.336,15.337c0,8.458,6.882,15.336,15.336,15.336c8.462,0,15.336-6.879,15.336-15.336
			C86.203,62.409,79.329,55.529,70.867,55.529z"/>
		<path fill="#FFFFFF" d="M100.379,49.271c0,3.074-2.49,5.563-5.564,5.563c-3.066,0-5.557-2.49-5.557-5.563
			c0-3.072,2.49-5.562,5.557-5.562C97.889,43.708,100.379,46.198,100.379,49.271z"/>
	</g>
</g>
<g>
	<g>
		<linearGradient id="SVGID_2_" gradientUnits="userSpaceOnUse" x1="4.882813e-004" y1="70.8657" x2="141.7329" y2="70.8657">
			<stop  offset="0.3228" style="stop-color:#449728"/>
			<stop  offset="1" style="stop-color:#45B035"/>
		</linearGradient>
		<rect x="0" y="-0.001" fill="url(#SVGID_2_)" width="141.732" height="141.734"/>
	</g>
	<g>
		<path fill-rule="evenodd" clip-rule="evenodd" fill="#FFFFFF" d="M70.937,30.31c10.36,0.088,19.951,2.73,28.389,8.888
			c6.501,4.745,11.283,10.796,13.224,18.769c2.092,8.59,0.182,16.395-4.834,23.548c-2.986,4.26-6.76,7.764-10.7,11.098
			c-6.341,5.366-13.066,10.206-20.222,14.435c-2.147,1.268-4.348,2.445-6.529,3.657c-0.314,0.175-0.648,0.321-0.987,0.444
			c-0.813,0.295-1.778,0.528-2.273-0.293c-0.354-0.588-0.399-1.517-0.253-2.226c0.402-1.937,1.009-3.831,1.472-5.757
			c0.149-0.623,0.154-1.297,0.138-1.943c-0.032-1.258-0.768-2-2.031-2.102c-6.832-0.549-13.306-2.361-19.31-5.68
			c-8.396-4.641-14.746-11.118-17.464-20.547c-2.707-9.388-0.792-18.026,5.036-25.748c6.11-8.093,14.488-12.711,24.188-15.134
			C62.764,30.725,66.828,30.3,70.937,30.31z M78.335,66.299c-0.414-0.52-0.637-0.779-0.839-1.055
			c-2.492-3.379-4.978-6.765-7.473-10.143c-0.812-1.097-1.785-1.507-2.796-1.151c-1.063,0.374-1.493,1.23-1.499,2.287
			c-0.023,5.413-0.036,10.824-0.024,16.234c0.004,1.438,0.961,2.42,2.236,2.428c1.327,0.006,2.183-0.897,2.199-2.4
			c0.021-1.925-0.008-3.852-0.012-5.776c-0.003-1.323-0.002-2.647-0.002-4.222c0.318,0.343,0.469,0.476,0.585,0.634
			c2.582,3.494,5.154,6.993,7.741,10.486c0.843,1.138,1.804,1.536,2.776,1.202c1.023-0.354,1.513-1.183,1.516-2.619
			c0.005-2.943-0.003-5.884-0.004-8.826c-0.002-2.433,0.019-4.868-0.014-7.301c-0.018-1.345-1.021-2.292-2.28-2.253
			c-1.21,0.04-2.095,0.993-2.108,2.292c-0.012,1.017-0.003,2.035-0.003,3.051C78.335,61.439,78.335,63.711,78.335,66.299z
			 M90.194,58.235c1.996,0,3.883,0.019,5.77-0.006c1.515-0.021,2.472-0.869,2.495-2.145c0.024-1.351-0.911-2.284-2.458-2.306
			c-2.615-0.035-5.231-0.037-7.846,0.015c-1.648,0.034-2.423,0.891-2.432,2.552c-0.015,2.543-0.008,5.084-0.009,7.627
			c-0.003,2.87-0.023,5.739-0.002,8.609c0.011,1.425,0.844,2.3,2.186,2.308c2.833,0.022,5.668,0.034,8.501-0.001
			c1.694-0.022,2.64-1.865,1.74-3.308c-0.515-0.823-1.286-1.101-2.22-1.095c-1.91,0.013-3.82,0.004-5.733,0.004
			c0-1.374,0-2.591,0-3.891c1.98,0,3.902,0.085,5.81-0.044c0.7-0.048,1.485-0.473,2.019-0.959c0.626-0.571,0.589-1.418,0.199-2.213
			c-0.417-0.855-1.119-1.195-2.02-1.198c-1.986-0.007-3.973-0.001-6-0.001C90.194,60.833,90.194,59.612,90.194,58.235z
			 M47.729,70.502c0-0.662,0.002-1.2,0-1.739c-0.016-4.25-0.015-8.499-0.06-12.749c-0.014-1.261-0.841-2.077-1.998-2.139
			c-1.232-0.064-2.139,0.687-2.292,1.96c-0.069,0.574-0.046,1.16-0.047,1.74c-0.014,4.868-0.031,9.735-0.031,14.603
			c0,1.885,0.81,2.715,2.6,2.719c2.58,0.004,5.158,0.009,7.737-0.008c0.389-0.002,0.808-0.041,1.156-0.191
			c0.964-0.421,1.507-1.476,1.302-2.386c-0.229-1.025-1.16-1.79-2.292-1.805C51.815,70.484,49.827,70.502,47.729,70.502z
			 M62.53,64.319c-0.013,0-0.027,0-0.041,0c0-2.684,0.008-5.367-0.004-8.049c-0.006-1.475-0.788-2.364-2.065-2.395
			c-1.351-0.032-2.209,0.842-2.22,2.367c-0.036,5.366-0.059,10.733-0.045,16.1c0.001,0.548,0.165,1.168,0.455,1.627
			c0.536,0.843,1.423,1.147,2.375,0.845c0.981-0.311,1.542-1.041,1.544-2.117C62.533,69.904,62.53,67.111,62.53,64.319z"/>
		<linearGradient id="SVGID_3_" gradientUnits="userSpaceOnUse" x1="65.7002" y1="64.3799" x2="82.7466" y2="64.3799">
			<stop  offset="0.3228" style="stop-color:#449728"/>
			<stop  offset="1" style="stop-color:#45B035"/>
		</linearGradient>
		<path fill-rule="evenodd" clip-rule="evenodd" fill="url(#SVGID_3_)" d="M78.335,66.299c0-2.588,0-4.86,0-7.131
			c0-1.017-0.009-2.035,0.003-3.051c0.014-1.299,0.898-2.253,2.108-2.292c1.26-0.04,2.263,0.908,2.28,2.253
			c0.032,2.433,0.012,4.868,0.014,7.301c0.001,2.941,0.009,5.883,0.004,8.826c-0.003,1.437-0.492,2.266-1.516,2.619
			c-0.973,0.334-1.934-0.064-2.776-1.202c-2.587-3.493-5.159-6.992-7.741-10.486c-0.116-0.158-0.267-0.292-0.585-0.634
			c0,1.575-0.001,2.899,0.002,4.222c0.004,1.925,0.032,3.851,0.012,5.776c-0.017,1.503-0.872,2.406-2.199,2.4
			c-1.275-0.008-2.232-0.989-2.236-2.428c-0.012-5.411,0.001-10.822,0.024-16.234c0.006-1.056,0.437-1.913,1.499-2.287
			c1.011-0.356,1.984,0.054,2.796,1.151c2.495,3.378,4.98,6.763,7.473,10.143C77.699,65.52,77.921,65.779,78.335,66.299z"/>
		<linearGradient id="SVGID_4_" gradientUnits="userSpaceOnUse" x1="85.7026" y1="64.332" x2="98.4971" y2="64.332">
			<stop  offset="0.3228" style="stop-color:#449728"/>
			<stop  offset="1" style="stop-color:#45B035"/>
		</linearGradient>
		<path fill-rule="evenodd" clip-rule="evenodd" fill="url(#SVGID_4_)" d="M90.194,58.235c0,1.377,0,2.597,0,3.948
			c2.027,0,4.014-0.006,6,0.001c0.9,0.003,1.603,0.343,2.02,1.198c0.39,0.795,0.427,1.642-0.199,2.213
			c-0.533,0.486-1.318,0.911-2.019,0.959c-1.907,0.129-3.829,0.044-5.81,0.044c0,1.299,0,2.517,0,3.891
			c1.913,0,3.823,0.009,5.733-0.004c0.934-0.006,1.705,0.272,2.22,1.095c0.899,1.442-0.046,3.285-1.74,3.308
			c-2.833,0.035-5.668,0.023-8.501,0.001c-1.342-0.008-2.175-0.883-2.186-2.308c-0.021-2.87-0.001-5.739,0.002-8.609
			c0.001-2.543-0.006-5.084,0.009-7.627c0.009-1.661,0.783-2.518,2.432-2.552c2.614-0.051,5.23-0.05,7.846-0.015
			c1.547,0.022,2.482,0.955,2.458,2.306c-0.023,1.276-0.98,2.124-2.495,2.145C94.077,58.254,92.19,58.235,90.194,58.235z"/>
		<linearGradient id="SVGID_5_" gradientUnits="userSpaceOnUse" x1="43.3013" y1="64.3862" x2="56.1392" y2="64.3862">
			<stop  offset="0.3228" style="stop-color:#449728"/>
			<stop  offset="1" style="stop-color:#45B035"/>
		</linearGradient>
		<path fill-rule="evenodd" clip-rule="evenodd" fill="url(#SVGID_5_)" d="M47.729,70.502c2.098,0,4.086-0.018,6.075,0.006
			c1.132,0.015,2.063,0.78,2.292,1.805c0.205,0.91-0.338,1.965-1.302,2.386c-0.349,0.15-0.768,0.189-1.156,0.191
			c-2.579,0.017-5.157,0.012-7.737,0.008c-1.79-0.004-2.6-0.834-2.6-2.719c0-4.867,0.018-9.735,0.031-14.603
			c0.001-0.58-0.022-1.166,0.047-1.74c0.153-1.273,1.06-2.024,2.292-1.96c1.157,0.062,1.984,0.877,1.998,2.139
			c0.045,4.25,0.044,8.499,0.06,12.749C47.731,69.302,47.729,69.84,47.729,70.502z"/>
		<linearGradient id="SVGID_6_" gradientUnits="userSpaceOnUse" x1="58.1509" y1="64.4004" x2="62.5308" y2="64.4004">
			<stop  offset="0.3228" style="stop-color:#449728"/>
			<stop  offset="1" style="stop-color:#45B035"/>
		</linearGradient>
		<path fill-rule="evenodd" clip-rule="evenodd" fill="url(#SVGID_6_)" d="M62.53,64.319c0,2.792,0.003,5.585-0.001,8.377
			c-0.002,1.076-0.563,1.807-1.544,2.117c-0.952,0.303-1.839-0.002-2.375-0.845c-0.29-0.459-0.454-1.079-0.455-1.627
			c-0.014-5.367,0.009-10.734,0.045-16.1c0.011-1.525,0.869-2.399,2.22-2.367c1.277,0.031,2.06,0.92,2.065,2.395
			c0.012,2.682,0.004,5.366,0.004,8.049C62.502,64.319,62.517,64.319,62.53,64.319z"/>
	</g>
</g>
<g>
	<rect x="0" y="-0.001" fill="#E60012" width="141.732" height="141.734"/>
	<g>
		<path fill="#FFFFFF" d="M113.386,93.196c0,3.961-3.211,7.174-7.173,7.174H35.52c-3.962,0-7.173-3.213-7.173-7.174V48.535
			c0-3.962,3.211-7.174,7.173-7.174h70.693c3.962,0,7.173,3.212,7.173,7.174V93.196z"/>
		<polygon fill="#E60012" points="86.461,70.866 63.214,84.044 63.214,57.687 		"/>
	</g>
</g>
<g>
	<rect x="0" y="-0.001" fill="#005BAC" width="141.732" height="141.734"/>
	<g>
		<path fill="#FFFFFF" d="M76.825,42.291c1.01-1.08,2.67-1.63,4.99-1.63c1.78,0,3.61,0.17,5.5,0.52v-11.83c-3.08-0.67-6.2-1-9.38-1
			c-4.44,0-8.12,0.78-11.03,2.36c-2.91,1.58-4.91,3.62-5.99,6.13c-1.09,2.51-1.63,6.31-1.63,11.41v4.56h-8.89v12.61h8.89v47.961
			h16.03V65.42h11.98v-12.61h-11.98v-4.27C75.315,45.46,75.825,43.371,76.825,42.291z"/>
	</g>
</g>
</svg>
