<?xml version="1.0" encoding="utf-8"?>
<!-- Generator: Adobe Illustrator 16.0.3, SVG Export Plug-In . SVG Version: 6.00 Build 0)  -->
<!DOCTYPE svg PUBLIC "-//W3C//DTD SVG 1.1//EN" "http://www.w3.org/Graphics/SVG/1.1/DTD/svg11.dtd">
<svg version="1.1" id="圖層_1" xmlns="http://www.w3.org/2000/svg" xmlns:xlink="http://www.w3.org/1999/xlink" x="0px" y="0px"
	 width="425.197px" height="425.197px" viewBox="0 0 425.197 425.197" enable-background="new 0 0 425.197 425.197"
	 xml:space="preserve">
<g>
	<rect x="-0.016" y="-0.001" fill="#D82137" width="425.197" height="425.199"/>
	<g>
		<path fill="#FFFFFF" d="M365.223,115.925c0,8.925-7.235,16.161-16.16,16.161H76.103c-8.925,0-16.161-7.235-16.161-16.161l0,0
			c0-8.925,7.235-16.16,16.161-16.16h272.959C357.987,99.765,365.223,107,365.223,115.925L365.223,115.925z"/>
		<path fill="#FFFFFF" d="M365.223,212.599c0,8.925-7.235,16.161-16.16,16.161H76.103c-8.925,0-16.161-7.235-16.161-16.161l0,0
			c0-8.924,7.235-16.16,16.161-16.16h272.959C357.987,196.439,365.223,203.674,365.223,212.599L365.223,212.599z"/>
		<path fill="#FFFFFF" d="M365.223,309.272c0,8.925-7.235,16.16-16.16,16.16H76.103c-8.925,0-16.161-7.234-16.161-16.16l0,0
			c0-8.925,7.235-16.16,16.161-16.16h272.959C357.987,293.113,365.223,300.347,365.223,309.272L365.223,309.272z"/>
	</g>
</g>
</svg>
